<mxfile host="app.diagrams.net" modified="2021-09-03T07:45:41.310Z" agent="5.0 (Macintosh; Intel Mac OS X 10_15_7) AppleWebKit/537.36 (KHTML, like Gecko) Chrome/92.0.4515.159 Safari/537.36" etag="BpNgqlroPThsNns8TcN-" version="14.9.9" type="github">
  <diagram id="w9Xe263wf8hpV98jlHkY" name="Page-1">
    <mxGraphModel dx="1106" dy="557" grid="1" gridSize="10" guides="1" tooltips="1" connect="1" arrows="1" fold="1" page="1" pageScale="1" pageWidth="827" pageHeight="1169" math="0" shadow="0">
      <root>
        <mxCell id="0" />
        <mxCell id="1" parent="0" />
        <mxCell id="oPHzkh280yfm8pvYqXVR-19" style="edgeStyle=orthogonalEdgeStyle;shape=flexArrow;rounded=1;orthogonalLoop=1;jettySize=auto;html=1;fontSize=14;startArrow=none;endArrow=block;endFill=0;startSize=7;endSize=7;sourcePerimeterSpacing=0;targetPerimeterSpacing=0;strokeWidth=1;fillColor=#ffffff;startFill=0;" edge="1" parent="1" source="oPHzkh280yfm8pvYqXVR-1" target="oPHzkh280yfm8pvYqXVR-6">
          <mxGeometry relative="1" as="geometry" />
        </mxCell>
        <mxCell id="oPHzkh280yfm8pvYqXVR-1" value="" style="rounded=0;whiteSpace=wrap;html=1;shadow=1;glass=0;sketch=0;fontSize=14;strokeWidth=2;dashed=1;dashPattern=1 1;" vertex="1" parent="1">
          <mxGeometry x="130" y="240" width="360" height="90" as="geometry" />
        </mxCell>
        <mxCell id="oPHzkh280yfm8pvYqXVR-3" value="&lt;font style=&quot;font-size: 18px&quot;&gt;RMS&lt;/font&gt;" style="rounded=1;whiteSpace=wrap;html=1;shadow=1;glass=0;sketch=0;fontSize=14;strokeWidth=2;gradientColor=none;" vertex="1" parent="1">
          <mxGeometry x="240" y="280" width="60" height="40" as="geometry" />
        </mxCell>
        <mxCell id="oPHzkh280yfm8pvYqXVR-4" value="&lt;font style=&quot;font-size: 18px&quot;&gt;PSI&lt;/font&gt;" style="rounded=1;whiteSpace=wrap;html=1;shadow=1;glass=0;sketch=0;fontSize=14;strokeWidth=2;gradientColor=none;" vertex="1" parent="1">
          <mxGeometry x="150" y="280" width="60" height="40" as="geometry" />
        </mxCell>
        <mxCell id="oPHzkh280yfm8pvYqXVR-5" value="&lt;font style=&quot;font-size: 18px&quot;&gt;APTR&lt;/font&gt;" style="rounded=1;whiteSpace=wrap;html=1;shadow=1;glass=0;sketch=0;fontSize=14;strokeWidth=2;gradientColor=none;" vertex="1" parent="1">
          <mxGeometry x="330" y="280" width="60" height="40" as="geometry" />
        </mxCell>
        <mxCell id="oPHzkh280yfm8pvYqXVR-6" value="" style="rounded=0;whiteSpace=wrap;html=1;shadow=1;glass=0;sketch=0;fontSize=14;strokeWidth=2;dashed=1;dashPattern=1 1;" vertex="1" parent="1">
          <mxGeometry x="570" y="240" width="370" height="90" as="geometry" />
        </mxCell>
        <mxCell id="oPHzkh280yfm8pvYqXVR-7" value="地域过滤" style="rounded=1;whiteSpace=wrap;html=1;shadow=1;glass=0;sketch=0;fontSize=18;strokeWidth=2;gradientColor=none;" vertex="1" parent="1">
          <mxGeometry x="680" y="280" width="75" height="40" as="geometry" />
        </mxCell>
        <mxCell id="oPHzkh280yfm8pvYqXVR-8" value="专名过滤" style="rounded=1;whiteSpace=wrap;html=1;shadow=1;glass=0;sketch=0;fontSize=18;strokeWidth=2;gradientColor=none;" vertex="1" parent="1">
          <mxGeometry x="580" y="280" width="80" height="40" as="geometry" />
        </mxCell>
        <mxCell id="oPHzkh280yfm8pvYqXVR-9" value="黑名单" style="rounded=1;whiteSpace=wrap;html=1;shadow=1;glass=0;sketch=0;fontSize=18;strokeWidth=2;gradientColor=none;" vertex="1" parent="1">
          <mxGeometry x="790" y="280" width="60" height="40" as="geometry" />
        </mxCell>
        <mxCell id="oPHzkh280yfm8pvYqXVR-10" value="多路召回" style="text;html=1;align=center;verticalAlign=middle;resizable=0;points=[];autosize=1;strokeColor=none;fontSize=18;" vertex="1" parent="1">
          <mxGeometry x="265" y="245" width="90" height="30" as="geometry" />
        </mxCell>
        <mxCell id="oPHzkh280yfm8pvYqXVR-11" value="..." style="rounded=1;whiteSpace=wrap;html=1;shadow=1;glass=0;sketch=0;fontSize=18;strokeWidth=2;gradientColor=none;" vertex="1" parent="1">
          <mxGeometry x="870" y="280" width="60" height="40" as="geometry" />
        </mxCell>
        <mxCell id="oPHzkh280yfm8pvYqXVR-12" value="人工干预" style="text;html=1;align=center;verticalAlign=middle;resizable=0;points=[];autosize=1;strokeColor=none;fontSize=18;" vertex="1" parent="1">
          <mxGeometry x="710" y="245" width="90" height="30" as="geometry" />
        </mxCell>
        <mxCell id="oPHzkh280yfm8pvYqXVR-13" value="..." style="rounded=1;whiteSpace=wrap;html=1;shadow=1;glass=0;sketch=0;fontSize=18;strokeWidth=2;gradientColor=none;" vertex="1" parent="1">
          <mxGeometry x="420" y="280" width="60" height="40" as="geometry" />
        </mxCell>
        <mxCell id="oPHzkh280yfm8pvYqXVR-17" style="edgeStyle=orthogonalEdgeStyle;shape=flexArrow;rounded=1;orthogonalLoop=1;jettySize=auto;html=1;fontSize=14;startArrow=none;endArrow=block;endFill=0;startSize=7;endSize=7;sourcePerimeterSpacing=0;targetPerimeterSpacing=0;strokeWidth=1;fillColor=#ffffff;startFill=0;" edge="1" parent="1" source="oPHzkh280yfm8pvYqXVR-15" target="oPHzkh280yfm8pvYqXVR-1">
          <mxGeometry relative="1" as="geometry">
            <mxPoint x="307" y="235" as="targetPoint" />
            <Array as="points">
              <mxPoint x="510" y="190" />
              <mxPoint x="307" y="190" />
            </Array>
          </mxGeometry>
        </mxCell>
        <mxCell id="oPHzkh280yfm8pvYqXVR-18" style="edgeStyle=orthogonalEdgeStyle;shape=flexArrow;rounded=1;orthogonalLoop=1;jettySize=auto;html=1;fontSize=14;startArrow=none;endArrow=block;endFill=0;startSize=7;endSize=7;sourcePerimeterSpacing=0;targetPerimeterSpacing=0;strokeWidth=1;fillColor=#ffffff;startFill=0;" edge="1" parent="1" source="oPHzkh280yfm8pvYqXVR-15">
          <mxGeometry relative="1" as="geometry">
            <mxPoint x="755" y="240" as="targetPoint" />
            <Array as="points">
              <mxPoint x="570" y="190" />
              <mxPoint x="755" y="190" />
            </Array>
          </mxGeometry>
        </mxCell>
        <mxCell id="oPHzkh280yfm8pvYqXVR-25" style="edgeStyle=orthogonalEdgeStyle;shape=flexArrow;rounded=1;orthogonalLoop=1;jettySize=auto;html=1;fontSize=14;fontColor=#FF2E17;startArrow=block;startFill=0;endArrow=none;endFill=0;startSize=7;endSize=7;sourcePerimeterSpacing=0;targetPerimeterSpacing=0;strokeWidth=1;fillColor=#ffffff;" edge="1" parent="1" source="oPHzkh280yfm8pvYqXVR-15">
          <mxGeometry relative="1" as="geometry">
            <mxPoint x="545" as="targetPoint" />
            <Array as="points">
              <mxPoint x="545" />
            </Array>
          </mxGeometry>
        </mxCell>
        <mxCell id="oPHzkh280yfm8pvYqXVR-15" value="&lt;span style=&quot;font-size: 18px&quot;&gt;&lt;b&gt;组件化短串分析平台SPA&lt;/b&gt;&lt;/span&gt;" style="whiteSpace=wrap;html=1;rounded=0;shadow=1;glass=0;sketch=0;fontSize=18;strokeWidth=2;gradientColor=none;" vertex="1" parent="1">
          <mxGeometry x="390" y="90" width="310" height="70" as="geometry" />
        </mxCell>
        <mxCell id="oPHzkh280yfm8pvYqXVR-21" value="&lt;font style=&quot;font-size: 18px;&quot;&gt;query + cmd&lt;/font&gt;" style="text;html=1;align=center;verticalAlign=middle;resizable=0;points=[];autosize=1;strokeColor=none;fontSize=18;fontColor=#FF2E17;" vertex="1" parent="1">
          <mxGeometry x="420" y="20" width="120" height="30" as="geometry" />
        </mxCell>
        <mxCell id="oPHzkh280yfm8pvYqXVR-22" value="1" style="text;html=1;align=center;verticalAlign=middle;resizable=0;points=[];autosize=1;fontSize=18;fontColor=#FF1212;" vertex="1" parent="1">
          <mxGeometry x="405" y="185" width="30" height="30" as="geometry" />
        </mxCell>
        <mxCell id="oPHzkh280yfm8pvYqXVR-23" value="2" style="text;html=1;align=center;verticalAlign=middle;resizable=0;points=[];autosize=1;strokeColor=none;fontSize=18;fontColor=#FF2E17;" vertex="1" parent="1">
          <mxGeometry x="515" y="255" width="30" height="30" as="geometry" />
        </mxCell>
        <mxCell id="oPHzkh280yfm8pvYqXVR-24" value="3" style="text;html=1;align=center;verticalAlign=middle;resizable=0;points=[];autosize=1;strokeColor=none;fontSize=18;fontColor=#FF2E17;" vertex="1" parent="1">
          <mxGeometry x="680" y="185" width="30" height="30" as="geometry" />
        </mxCell>
      </root>
    </mxGraphModel>
  </diagram>
</mxfile>
